<svg width="102" height="123" viewBox="0 0 102 123" fill="none" xmlns="http://www.w3.org/2000/svg">
<path fill-rule="evenodd" clip-rule="evenodd" d="M60 4L100 43.6667V109.117C100 116.784 93.732 123 86 123H14C6.26801 123 0 116.784 0 109.117V17.8833C0 10.2158 6.26801 4 14 4H60Z" fill="#E94848"/>
<path fill-rule="evenodd" clip-rule="evenodd" d="M46.6333 47.6333C44.0116 47.6333 41.8556 49.7714 41.8556 52.3713C41.8556 55.6033 43.6664 59.6157 45.5733 63.3871C44.0827 68.0141 42.3913 72.9726 40.2281 77.1568C39.4446 77.4616 38.6761 77.7527 37.9286 78.0357C34.4524 79.3521 31.432 80.4958 29.4781 82.0576C29.4411 82.0951 29.4062 82.1347 29.3736 82.176C28.5061 83.0558 28 84.2536 28 85.537C28 88.1369 30.1561 90.275 32.7778 90.275C34.0562 90.275 35.2902 89.8019 36.1819 88.898C36.2128 88.8746 36.2427 88.8499 36.2715 88.824C38.019 86.7548 40.0794 83.0012 41.9153 79.5702C46.1464 77.9196 50.5809 76.2402 54.8601 75.232C57.9839 77.7285 62.5031 79.3777 66.2222 79.3777C68.8439 79.3777 71 77.2396 71 74.6397C71 72.0399 68.8439 69.9018 66.2222 69.9018C63.2397 69.9018 58.9056 70.9575 55.5917 72.0635C52.9056 69.5628 50.4377 66.4397 48.6639 63.1206C48.8555 62.5351 49.0521 61.9495 49.2476 61.3669L49.2477 61.3666L49.2478 61.3663L49.2479 61.366C50.3452 58.0966 51.4111 54.9205 51.4111 52.3713C51.4111 49.7714 49.2551 47.6333 46.6333 47.6333ZM46.6333 50.4761C47.7057 50.4761 48.5444 51.3078 48.5444 52.3713C48.5444 53.7934 47.7765 56.4116 46.8871 59.2265C45.6987 56.4881 44.7222 53.8609 44.7222 52.3713C44.7222 51.3078 45.5608 50.4761 46.6333 50.4761ZM52.4114 72.937C50.5745 71.0648 48.8915 68.9555 47.4545 66.6888C46.455 69.7053 45.3991 72.7685 44.0802 75.7206C46.811 74.6898 49.5781 73.7053 52.4114 72.937ZM66.2222 72.7445C67.2947 72.7445 68.1334 73.5762 68.1334 74.6397C68.1334 75.7033 67.2947 76.5349 66.2222 76.5349C64.0692 76.5349 61.0091 75.5711 58.5629 74.2252C61.3708 73.4378 64.4347 72.7445 66.2222 72.7445ZM34.0917 86.9436C35.0258 85.8265 36.3613 83.6067 37.7049 81.2285C34.9335 82.3284 32.4951 83.3592 31.3743 84.2193C31.0812 84.5395 30.8667 85.0366 30.8667 85.537C30.8667 86.6005 31.7054 87.4322 32.7778 87.4322C33.3481 87.4322 33.7726 87.2462 34.0917 86.9436Z" fill="white"/>
<g filter="url(#filter0_d)">
<path fill-rule="evenodd" clip-rule="evenodd" d="M100 43.6667H74.7071C66.9751 43.6667 60 36.7497 60 29.0821V4L100 43.6667Z" fill="white" fill-opacity="0.4"/>
</g>
<defs>
<filter id="filter0_d" x="58" y="0" width="44" height="43.6667" filterUnits="userSpaceOnUse" color-interpolation-filters="sRGB">
<feFlood flood-opacity="0" result="BackgroundImageFix"/>
<feColorMatrix in="SourceAlpha" type="matrix" values="0 0 0 0 0 0 0 0 0 0 0 0 0 0 0 0 0 0 127 0"/>
<feOffset dy="-2"/>
<feGaussianBlur stdDeviation="1"/>
<feColorMatrix type="matrix" values="0 0 0 0 0 0 0 0 0 0 0 0 0 0 0 0 0 0 0.0909637 0"/>
<feBlend mode="normal" in2="BackgroundImageFix" result="effect1_dropShadow"/>
<feBlend mode="normal" in="SourceGraphic" in2="effect1_dropShadow" result="shape"/>
</filter>
</defs>
</svg>
