<svg width="25" height="25" viewBox="0 0 25 25" fill="none" xmlns="http://www.w3.org/2000/svg">
<path fill-rule="evenodd" clip-rule="evenodd" d="M8.18983 6.60834C7.18469 6.60834 6.36987 7.42316 6.36987 8.42829V16.6181C6.36987 17.6232 7.18469 18.438 8.18983 18.438H16.3796C17.3848 18.438 18.1996 17.6232 18.1996 16.6181V8.42829C18.1996 7.42316 17.3848 6.60834 16.3796 6.60834H8.18983ZM13.1947 11.1582C12.4409 11.1582 11.8297 11.7693 11.8297 12.5232C11.8297 13.277 12.4409 13.8882 13.1947 13.8882H15.0147C15.7685 13.8882 16.3796 13.277 16.3796 12.5232C16.3796 11.7693 15.7685 11.1582 15.0147 11.1582H13.1947Z" fill="#303030"/>
</svg>
