<svg width="606" height="477" viewBox="0 0 606 477" fill="none" xmlns="http://www.w3.org/2000/svg">
<path d="M90.6681 421.326L73.8327 203.342C73.4089 197.789 74.886 192.259 77.999 187.748L162.589 64.9956C164.85 61.7147 167.884 59.1063 171.395 57.4257C174.905 55.745 178.771 55.0498 182.613 55.4079L472.021 82.3465C476.6 82.7718 480.944 84.6759 484.455 87.7958C487.962 90.9162 490.466 95.0999 491.617 99.7729L531.303 260.419C532.28 264.367 532.253 268.516 531.227 272.451L492.242 422.093L90.6681 421.326Z" fill="#F4F4F4"/>
<path opacity="0.2" fill-rule="evenodd" clip-rule="evenodd" d="M284.062 131.573L236.843 260.406L376.477 261.555L330.269 131.573H284.062Z" fill="#FFCF5C"/>
<path d="M508.105 421.986H77.2162C77.134 422.002 77.0496 421.994 76.9693 421.97C76.8886 421.95 76.814 421.907 76.7504 421.851C76.6867 421.795 76.6356 421.724 76.6008 421.644C76.5655 421.565 76.5474 421.477 76.5474 421.39C76.5474 421.302 76.5655 421.215 76.6008 421.135C76.6356 421.056 76.6867 420.984 76.7504 420.929C76.814 420.873 76.8886 420.829 76.9693 420.809C77.0496 420.786 77.134 420.778 77.2162 420.794H508.105C508.188 420.778 508.271 420.786 508.351 420.809C508.434 420.829 508.506 420.873 508.57 420.929C508.635 420.984 508.684 421.056 508.722 421.135C508.756 421.215 508.775 421.302 508.775 421.39C508.775 421.477 508.756 421.565 508.722 421.644C508.684 421.724 508.635 421.795 508.57 421.851C508.506 421.907 508.434 421.95 508.351 421.97C508.271 421.994 508.188 422.002 508.105 421.986Z" fill="#B2B6BB"/>
<path d="M214.285 127.721H128.953V248.466H214.285V127.721Z" fill="#B2B6BB"/>
<path opacity="0.1" d="M214.285 127.721H128.953V248.466H214.285V127.721Z" fill="black"/>
<path d="M212.24 127.721H126.908V248.466H212.24V127.721Z" fill="#B2B6BB"/>
<path d="M207.536 133.496H131.332V248.108H207.536V133.496Z" fill="#F4F4F4"/>
<path opacity="0.7" d="M131.332 173.111L155.875 133.5H177.819L131.332 205.197V173.111Z" fill="white"/>
<path opacity="0.7" d="M131.332 247.937V222.115L191.14 133.5L207.57 133.504V149.341L139.376 248.143L131.332 247.937Z" fill="white"/>
<path opacity="0.7" d="M158.893 247.865L207.57 177.238V193.424L169.722 248.112L158.893 247.865Z" fill="white"/>
<path d="M217.024 247.774H120.064V253.064H217.024V247.774Z" fill="#B2B6BB"/>
<path d="M169.717 130.877H167.369V250.421H169.717V130.877Z" fill="#B2B6BB"/>
<path d="M211.233 159.512H127.219V161.977H211.233V159.512Z" fill="#B2B6BB"/>
<path d="M211.236 187.247H127.221V189.711H211.236V187.247Z" fill="#B2B6BB"/>
<path d="M211.233 214.98H127.219V217.444H211.233V214.98Z" fill="#B2B6BB"/>
<path d="M212.172 246.561H126.779V247.829H212.172V246.561Z" fill="#B2B6BB"/>
<path opacity="0.1" d="M212.172 246.561H126.779V247.829H212.172V246.561Z" fill="black"/>
<path d="M306.598 138.33C310.468 138.33 313.605 135.038 313.605 130.976C313.605 126.915 310.468 123.623 306.598 123.623C302.728 123.623 299.591 126.915 299.591 130.976C299.591 135.038 302.728 138.33 306.598 138.33Z" fill="white"/>
<path fill-rule="evenodd" clip-rule="evenodd" d="M314.567 117.072C311.416 115.74 311.022 110.958 311.022 110.958H303.069C303.069 110.958 302.69 115.728 299.524 117.072C297.986 117.72 294.539 118.495 291.267 119.914C289.103 120.853 287.252 122.444 285.95 124.487C284.649 126.53 283.953 128.932 283.953 131.39V131.434H330.138V131.39C330.138 128.932 329.443 126.53 328.141 124.487C326.839 122.444 324.988 120.853 322.824 119.914C319.552 118.495 316.105 117.724 314.567 117.072Z" fill="#868A91"/>
<path d="M310.174 109.821H303.917V110.958H310.174V109.821Z" fill="#61656D"/>
<path d="M309.185 107.528H304.909V109.821H309.185V107.528Z" fill="#61656D"/>
<path d="M310.174 109.821H303.917V110.958H310.174V109.821Z" fill="#61656D"/>
<path d="M309.185 107.528H304.909V109.821H309.185V107.528Z" fill="#61656D"/>
<path fill-rule="evenodd" clip-rule="evenodd" d="M307.424 107.527H306.666V67.1891L307.424 67.2487V107.527Z" fill="#61656D"/>
<path opacity="0.2" fill-rule="evenodd" clip-rule="evenodd" d="M330.137 131.39C330.137 128.932 329.442 126.53 328.14 124.487C326.838 122.444 324.988 120.853 322.823 119.914C319.551 118.495 316.104 117.724 314.567 117.072C311.415 115.74 311.021 110.958 311.021 110.958H309.325L309.181 110.986C309.181 110.986 308.681 116.865 313.605 119.318C315.756 120.387 319.964 122.363 321.464 124.303C322.835 126.079 323.001 128.417 323.001 131.434H330.156L330.137 131.39Z" fill="black"/>
<path d="M177.349 420.953H376.124L403.293 266.579C403.41 265.897 403.388 265.195 403.221 264.524C403.054 263.853 402.747 263.229 402.323 262.695C401.903 262.162 401.373 261.733 400.774 261.438C400.176 261.144 399.521 260.991 398.861 260.991H200.085L172.917 415.388C172.8 416.067 172.827 416.767 172.996 417.435C173.165 418.106 173.471 418.727 173.894 419.255C174.317 419.788 174.845 420.213 175.442 420.507C176.039 420.801 176.69 420.953 177.349 420.953Z" fill="#FFCF5C"/>
<path opacity="0.2" d="M177.349 420.953H376.124L403.293 266.579C403.41 265.897 403.388 265.195 403.221 264.524C403.054 263.853 402.747 263.229 402.323 262.695C401.903 262.162 401.373 261.733 400.774 261.438C400.176 261.144 399.521 260.991 398.861 260.991H200.085L172.917 415.388C172.8 416.067 172.827 416.767 172.996 417.435C173.165 418.106 173.471 418.727 173.894 419.255C174.317 419.788 174.845 420.213 175.442 420.507C176.039 420.801 176.69 420.953 177.349 420.953Z" fill="black"/>
<path d="M376.125 420.952H175.937C174.834 420.952 173.769 420.531 172.944 419.76C172.119 418.993 171.592 417.931 171.463 416.783L154.939 271.13C154.864 270.467 154.923 269.795 155.114 269.158C155.304 268.52 155.621 267.932 156.044 267.433C156.467 266.934 156.985 266.534 157.566 266.26C158.146 265.986 158.775 265.844 159.412 265.844H354.529C355.631 265.843 356.696 266.268 357.52 267.036C358.344 267.805 358.872 268.864 359.002 270.013L376.125 420.952Z" fill="#FFCF5C"/>
<path d="M199.931 261.881L203.056 246.45C203.277 245.356 203.849 244.376 204.676 243.672C205.503 242.968 206.536 242.583 207.601 242.582H237.939C238.97 242.583 239.972 242.942 240.788 243.605C241.604 244.267 242.187 245.195 242.446 246.243L246.275 261.786L199.931 261.881Z" fill="#FFCF5C"/>
<path opacity="0.2" d="M199.931 261.881L203.056 246.45C203.277 245.356 203.849 244.376 204.676 243.672C205.503 242.968 206.536 242.583 207.601 242.582H237.939C238.97 242.583 239.972 242.942 240.788 243.605C241.604 244.267 242.187 245.195 242.446 246.243L246.275 261.786L199.931 261.881Z" fill="black"/>
<g opacity="0.4">
<path opacity="0.4" d="M288.153 327.095L279.582 318.099L262.432 336.098L245.29 318.099L236.723 327.095L253.865 345.09L236.719 363.08L245.29 372.076L262.436 354.085L279.582 372.084L288.153 363.1L271.003 345.094L288.153 327.095Z" fill="#3F4249"/>
</g>
<path opacity="0.6" d="M420.14 207.972L420.196 208.461C422.242 208.509 424.363 208.501 427.328 206.565C428.499 205.824 429.536 204.869 430.389 203.747L429.692 203.874C428.934 204.765 428.056 205.533 427.082 206.151C424.2 208.032 422.223 208.024 420.14 207.972Z" fill="#F4F4F4"/>
<path d="M431.396 162.975C431.396 155.073 424.018 148.665 414.92 148.665C405.823 148.665 398.445 155.073 398.445 162.975C398.445 170.877 405.823 177.285 414.92 177.285C416.674 177.287 418.42 177.041 420.113 176.554L427.23 179.67L424.847 174.395C428.824 171.78 431.396 167.638 431.396 162.975Z" fill="white" stroke="#B2B6BB" stroke-width="2" stroke-miterlimit="10"/>
<path d="M419.439 158.253C418.966 157.406 418.197 156.783 417.299 156.512C415.209 155.912 412.887 156.202 411.754 157.502C410.402 158.543 410.175 161.155 412.046 161.155C413.205 161.155 413.497 158.718 415.746 159.291C415.947 159.358 416.129 159.48 416.273 159.645C416.417 159.809 416.519 160.011 416.565 160.229C416.943 161.66 415.178 162.657 413.936 164.204C413.739 164.446 413.614 164.743 413.572 165.059C413.531 165.375 413.576 165.696 413.705 165.985C413.83 166.275 414.034 166.52 414.292 166.691C414.546 166.863 414.845 166.954 415.148 166.954C415.466 166.953 415.777 166.86 416.049 166.684C416.318 166.509 416.538 166.259 416.682 165.961C417.784 163.643 421.458 161.783 419.439 158.253Z" fill="#B2B6BB"/>
<path d="M414.936 168.493C414.568 168.416 414.19 168.464 413.853 168.63C413.519 168.797 413.239 169.072 413.065 169.416C412.887 169.761 412.822 170.155 412.875 170.542C412.932 170.928 413.103 171.286 413.364 171.563C413.629 171.84 413.97 172.02 414.337 172.078C414.705 172.136 415.08 172.068 415.409 171.884C415.739 171.7 416 171.41 416.159 171.057C416.318 170.704 416.367 170.307 416.296 169.924C416.227 169.571 416.064 169.247 415.822 168.992C415.58 168.738 415.269 168.564 414.936 168.493Z" fill="#B2B6BB"/>
<g opacity="0.3">
<path opacity="0.3" d="M333.678 229.357C333.59 229.36 333.504 229.329 333.435 229.272C333.366 229.215 333.318 229.134 333.299 229.043L314.362 137.221C314.341 137.116 314.36 137.006 314.417 136.916C314.473 136.825 314.56 136.762 314.661 136.74C314.762 136.718 314.866 136.739 314.952 136.798C315.038 136.856 315.098 136.949 315.119 137.054L334.057 228.876C334.067 228.928 334.068 228.981 334.059 229.032C334.05 229.084 334.032 229.133 334.005 229.177C333.978 229.221 333.942 229.258 333.901 229.288C333.86 229.318 333.814 229.339 333.765 229.349L333.678 229.357Z" fill="white"/>
</g>
<g opacity="0.3">
<path opacity="0.3" d="M280.653 229.358H280.574C280.525 229.347 280.479 229.326 280.438 229.296C280.397 229.266 280.361 229.228 280.335 229.185C280.307 229.14 280.289 229.092 280.28 229.04C280.271 228.989 280.272 228.936 280.282 228.884L299.22 137.062C299.23 137.01 299.25 136.96 299.279 136.916C299.308 136.872 299.344 136.835 299.387 136.805C299.429 136.776 299.477 136.756 299.527 136.746C299.577 136.736 299.628 136.737 299.678 136.748C299.728 136.759 299.775 136.78 299.817 136.81C299.859 136.84 299.895 136.879 299.922 136.923C299.95 136.968 299.969 137.018 299.979 137.07C299.988 137.123 299.988 137.177 299.977 137.229L281.04 229.051C281.019 229.142 280.97 229.222 280.899 229.278C280.829 229.334 280.742 229.362 280.653 229.358Z" fill="white"/>
</g>
<path d="M439.804 99.8922C439.956 99.8922 440.1 99.8294 440.206 99.7173C440.312 99.6056 440.373 99.4542 440.373 99.296C440.373 99.1378 440.312 98.9859 440.206 98.8742C440.1 98.7625 439.956 98.6997 439.804 98.6997C439.653 98.6997 439.509 98.7625 439.403 98.8742C439.297 98.9859 439.236 99.1378 439.236 99.296C439.236 99.4542 439.297 99.6056 439.403 99.7173C439.509 99.8294 439.653 99.8922 439.804 99.8922Z" fill="white"/>
<path d="M470.379 176.268C470.311 176.269 470.243 176.25 470.186 176.213C470.126 176.176 470.076 176.124 470.046 176.061C470.012 175.997 469.997 175.926 470.001 175.854C470.001 175.782 470.023 175.712 470.061 175.652L477.235 164.18C477.291 164.092 477.375 164.03 477.473 164.008C477.576 163.987 477.678 164.007 477.761 164.065C477.844 164.123 477.905 164.214 477.924 164.318C477.947 164.421 477.928 164.529 477.871 164.618L470.694 176.09C470.66 176.144 470.614 176.189 470.557 176.22C470.504 176.252 470.44 176.268 470.379 176.268Z" fill="#868A91"/>
<path d="M488.158 189.839H488.104L474.197 187.788C474.148 187.78 474.098 187.763 474.057 187.736C474.011 187.71 473.973 187.674 473.943 187.632C473.913 187.59 473.894 187.542 473.879 187.491C473.867 187.44 473.864 187.387 473.871 187.335C473.879 187.283 473.894 187.232 473.92 187.187C473.947 187.142 473.981 187.102 474.019 187.07C474.061 187.038 474.106 187.015 474.155 187.002C474.201 186.989 474.254 186.985 474.303 186.993L488.211 189.044C488.309 189.051 488.404 189.101 488.472 189.18C488.536 189.26 488.57 189.364 488.563 189.469C488.555 189.575 488.51 189.673 488.434 189.742C488.358 189.812 488.256 189.846 488.158 189.839Z" fill="#868A91"/>
<path d="M475.28 180.51C475.197 180.514 475.114 180.489 475.046 180.44C474.977 180.39 474.928 180.319 474.902 180.235C474.871 180.136 474.879 180.027 474.921 179.933C474.966 179.84 475.046 179.768 475.14 179.735L491.805 173.959C491.855 173.94 491.904 173.932 491.953 173.935C492.006 173.938 492.055 173.951 492.101 173.974C492.146 173.998 492.188 174.03 492.222 174.071C492.256 174.111 492.279 174.158 492.298 174.209C492.313 174.259 492.317 174.313 492.313 174.366C492.309 174.42 492.294 174.471 492.271 174.519C492.245 174.566 492.214 174.607 492.173 174.641C492.135 174.674 492.089 174.7 492.04 174.714L475.375 180.49C475.345 180.5 475.311 180.507 475.28 180.51Z" fill="#868A91"/>
<path d="M465.875 219.126C465.875 219.126 462.091 217.122 462.936 206.83L455.117 205.382C455.117 205.382 455.998 214.61 452.041 217.539L465.875 219.126Z" fill="#FFC2BD"/>
<g opacity="0.2">
<path opacity="0.2" d="M453.642 215.612L460.138 210.649L455.036 210.596C454.889 212.34 454.416 214.042 453.642 215.612Z" fill="black"/>
</g>
<path d="M467.371 202.841C466.83 205.964 465.124 208.921 462.367 209.929C459.093 211.126 456.668 211.207 452.894 211.207C447.743 211.207 447.913 205.842 447.769 200.435C447.622 195.006 448.056 189.184 450.092 187.292C454.153 183.516 466.08 185.907 467.531 192.222C468.281 195.49 467.887 199.868 467.371 202.841Z" fill="#FFC2BD"/>
<path d="M444.198 185.044C444.198 182.462 447.415 178.231 455.997 184.067L456.006 184.073C458.235 184.01 460.463 184.253 462.626 184.796C466.551 185.969 471.472 189.255 470.211 197.223C468.802 206.116 465.155 208.491 463.316 209.582C462.848 209.859 462.735 209.633 462.572 209.114C462.062 207.193 461.698 205.238 461.481 203.263C461.161 201.341 461.015 199.394 461.047 197.446C461.047 196.583 461.042 193.438 456.754 193.402C454.342 193.383 455.243 193.479 452.67 193.479C452.303 193.479 451.978 193.462 451.68 193.436H451.677C442.789 193.435 444.198 187.626 444.198 185.044Z" fill="#0F1011"/>
<path d="M455.128 200.436C454.737 200.436 454.419 200.118 454.419 199.727C454.419 199.336 454.737 199.019 455.128 199.019C455.52 199.019 455.837 199.336 455.837 199.727C455.837 200.118 455.52 200.436 455.128 200.436Z" fill="#0F1011"/>
<path d="M449.534 199.978C449.142 199.978 448.825 199.66 448.825 199.269C448.825 198.878 449.142 198.561 449.534 198.561C449.926 198.561 450.243 198.878 450.243 199.269C450.243 199.66 449.926 199.978 449.534 199.978Z" fill="#0F1011"/>
<path d="M448.306 197.76H448.31L450.189 197.736C450.277 197.736 450.362 197.7 450.424 197.638C450.486 197.575 450.521 197.49 450.52 197.402C450.519 197.313 450.484 197.229 450.421 197.167C450.358 197.105 450.273 197.07 450.185 197.071H450.18L448.302 197.095C448.216 197.098 448.134 197.135 448.075 197.198C448.015 197.26 447.983 197.343 447.983 197.429C447.984 197.515 448.018 197.598 448.078 197.66C448.138 197.721 448.22 197.757 448.306 197.76Z" fill="#0F1011"/>
<path d="M456.66 198.444C456.741 198.444 456.82 198.414 456.881 198.36C456.942 198.306 456.98 198.231 456.99 198.15C456.999 198.069 456.979 197.988 456.932 197.921C456.886 197.854 456.816 197.807 456.737 197.788L454.885 197.342C454.842 197.331 454.797 197.328 454.753 197.335C454.709 197.341 454.667 197.356 454.629 197.379C454.591 197.401 454.557 197.431 454.531 197.467C454.505 197.503 454.486 197.543 454.476 197.587C454.465 197.63 454.464 197.674 454.471 197.718C454.478 197.762 454.494 197.804 454.518 197.841C454.541 197.879 454.572 197.911 454.608 197.937C454.645 197.962 454.686 197.98 454.729 197.99L456.581 198.435C456.607 198.441 456.633 198.444 456.66 198.444Z" fill="#0F1011"/>
<path d="M458.817 201.461C458.757 202.252 459.013 203.034 459.529 203.637C460.045 204.24 460.778 204.615 461.57 204.679C462.361 204.744 463.146 204.493 463.753 203.982C464.36 203.47 464.739 202.74 464.809 201.949C464.848 201.555 464.807 201.157 464.689 200.779C464.571 200.401 464.378 200.05 464.121 199.748C463.865 199.446 463.55 199.198 463.195 199.02C462.841 198.842 462.455 198.737 462.059 198.712C459.917 198.646 458.953 199.808 458.817 201.461Z" fill="#FFC2BD"/>
<g opacity="0.2">
<path opacity="0.2" d="M451.98 203.656C452.039 203.656 452.096 203.635 452.14 203.597C452.185 203.559 452.214 203.506 452.222 203.448C452.231 203.39 452.219 203.331 452.187 203.281C452.156 203.232 452.108 203.195 452.052 203.178L450.611 202.738L451.619 200.494C451.633 200.465 451.64 200.433 451.642 200.401C451.643 200.369 451.638 200.336 451.627 200.306C451.615 200.276 451.598 200.248 451.576 200.224C451.554 200.201 451.527 200.182 451.498 200.168C451.468 200.155 451.436 200.148 451.404 200.147C451.371 200.146 451.339 200.152 451.309 200.163C451.279 200.175 451.251 200.193 451.228 200.215C451.205 200.237 451.186 200.264 451.173 200.294L450.05 202.79C450.036 202.822 450.029 202.856 450.029 202.891C450.029 202.926 450.037 202.96 450.051 202.991C450.065 203.023 450.086 203.051 450.112 203.074C450.138 203.097 450.169 203.114 450.202 203.124L451.909 203.648C451.932 203.654 451.956 203.657 451.98 203.656Z" fill="black"/>
</g>
<path d="M454.8 205.305C454.8 205.305 452.183 205.581 450.347 204.941C450.347 204.941 450.361 206.663 452.433 206.832C454.504 207.002 454.8 205.305 454.8 205.305Z" fill="white"/>
<path d="M432.068 415.409L442.273 414.196C441.814 410.338 441.295 405.704 441.259 404.944C441.262 404.993 441.261 405.033 441.261 405.064H430.985C430.985 405.372 430.985 406.308 432.068 415.409Z" fill="#FFC2BD"/>
<path d="M473.016 416.636L483.293 416.602C483.293 416.602 483.258 406.003 483.258 405.064H472.982C472.983 406.006 473.016 416.636 473.016 416.636Z" fill="#FFC2BD"/>
<path d="M446.381 412.167L428.278 411.859C429.03 392.814 429.158 371.031 429.36 351.319C429.416 346.433 429.786 341.556 430.466 336.717C433.379 315.834 435.279 295.072 439.201 274.309L439.331 274.347L439.714 271.742L476.943 269.445L478.881 293.74C478.881 293.74 483.73 377.788 485.941 411.582L467.9 413.105C464.649 379.972 459.618 331.693 456.524 296.885C452.971 313.831 450.554 331.379 447.464 348.18C446.845 369.213 446.324 391.199 446.381 412.167Z" fill="#5C63AB"/>
<path d="M460.523 420.605C460.247 420.604 459.974 420.546 459.721 420.434C459.468 420.323 459.241 420.161 459.054 419.957C458.867 419.754 458.723 419.515 458.633 419.254C458.543 418.993 458.507 418.717 458.528 418.442C458.558 418.06 458.697 417.695 458.927 417.39C459.158 417.084 459.471 416.851 459.83 416.717L471.791 412.715C472.022 412.638 472.268 412.613 472.511 412.64C472.753 412.666 472.987 412.746 473.197 412.871C474.841 414.011 476.808 414.593 478.809 414.533C480.367 414.422 481.862 413.877 483.125 412.958C483.236 412.867 483.37 412.81 483.513 412.792C483.655 412.775 483.8 412.798 483.929 412.859C484.059 412.921 484.168 413.018 484.245 413.14C484.321 413.261 484.362 413.402 484.361 413.545V419.387C484.361 419.559 484.327 419.73 484.261 419.889C484.195 420.048 484.098 420.193 483.976 420.314C483.853 420.436 483.708 420.532 483.549 420.598C483.389 420.663 483.218 420.696 483.045 420.696L460.523 420.605Z" fill="#C1D8ED"/>
<path d="M419.548 420.605C419.271 420.604 418.998 420.546 418.745 420.434C418.492 420.323 418.265 420.161 418.078 419.958C417.891 419.754 417.748 419.515 417.657 419.254C417.567 418.993 417.531 418.717 417.553 418.442C417.583 418.06 417.721 417.695 417.951 417.39C418.182 417.084 418.495 416.851 418.854 416.717L430.815 412.715C431.047 412.638 431.292 412.613 431.535 412.64C431.778 412.666 432.012 412.746 432.221 412.871C433.865 414.011 435.832 414.593 437.832 414.533C439.39 414.423 440.886 413.877 442.149 412.958C442.26 412.867 442.394 412.81 442.537 412.793C442.679 412.775 442.824 412.798 442.953 412.86C443.083 412.921 443.193 413.018 443.269 413.14C443.346 413.261 443.386 413.402 443.386 413.545V419.387C443.386 419.559 443.352 419.73 443.285 419.889C443.219 420.048 443.122 420.193 443 420.314C442.878 420.436 442.733 420.532 442.573 420.598C442.413 420.663 442.242 420.696 442.07 420.696L419.548 420.605Z" fill="#C1D8ED"/>
<path d="M414.18 224.21C414.18 224.21 413.397 218.393 409.264 219.201C406.656 219.711 394.084 220.649 394.036 221.81C393.918 224.682 405.438 223.98 406.794 226.476L414.18 224.21Z" fill="#FFC2BD"/>
<path d="M410.763 219.209C410.763 219.209 404.728 218.024 403.343 218.536C402.117 218.989 404.999 220.723 404.999 220.723L410.763 219.209Z" fill="#FFC2BD"/>
<path d="M424.625 233.839L430.557 232.893C430.79 232.856 431.013 232.77 431.21 232.641C431.408 232.512 431.576 232.343 431.704 232.144C431.831 231.946 431.915 231.723 431.951 231.49C431.986 231.257 431.972 231.019 431.909 230.791L428.176 217.411C428.066 217.015 427.813 216.673 427.466 216.451C427.119 216.229 426.703 216.142 426.296 216.207L420.365 217.152C420.132 217.19 419.909 217.276 419.711 217.405C419.514 217.534 419.346 217.703 419.218 217.901C419.09 218.1 419.006 218.323 418.971 218.556C418.936 218.789 418.95 219.027 419.013 219.254L422.745 232.634C422.856 233.031 423.108 233.372 423.455 233.595C423.802 233.817 424.219 233.904 424.625 233.839Z" fill="#C1D8ED"/>
<path d="M434.177 230.334L430.678 235.076C430.678 235.076 421.275 233.193 420.393 225.958C420.291 225.124 420.379 222.819 421.412 223.128C424.104 223.934 427.453 228.06 429.801 228.608C429.266 227.649 428.612 226.296 429.034 226.048C430.144 225.397 433.127 229.325 434.177 230.334Z" fill="#FFC2BD"/>
<path d="M414.199 220.788L428.419 242.144L430.07 239.052L426.932 236.298L433.974 228.291L435.225 229.391L439.575 221.236L439.685 221.294C441.202 218.654 443.942 216.953 448.655 216.751C448.963 216.736 449.458 216.726 450.094 216.716C450.221 219.405 466.889 219.395 467.241 216.653C471.949 216.658 475.81 218.1 478.046 220.333C485.754 228.032 476.294 241.151 476.294 251.416C476.294 261.681 480.943 266.285 480.6 271.555C480.062 279.835 439.773 277.88 437.723 273.173C435.609 268.324 439.9 265.332 439.709 249.466C439.702 248.806 439.677 248.133 439.64 247.453L438.305 246.279L433.634 255.034C433.2 255.848 432.561 256.535 431.781 257.029C431.001 257.523 430.107 257.806 429.185 257.851C429.098 257.855 429.012 257.857 428.925 257.857C428.046 257.857 427.18 257.64 426.405 257.225C425.63 256.81 424.97 256.21 424.483 255.479L405.314 226.692L414.199 220.788Z" fill="#FFCF5C"/>
<path d="M450.093 216.714C450.221 219.403 451.684 223.357 456.201 223.655C462.22 224.051 466.888 219.393 467.241 216.651H467.226C461.3 216.651 453.548 216.66 450.093 216.714Z" fill="#FFC2BD"/>
</svg>
