<svg width="34" height="34" viewBox="0 0 34 34" fill="none" xmlns="http://www.w3.org/2000/svg">
<path d="M17 0.744507C13.0425 0.744671 9.2141 2.15303 6.19994 4.71759C3.18577 7.28214 1.1825 10.8355 0.54855 14.742C-0.0853964 18.6484 0.691358 22.653 2.73983 26.0391C4.7883 29.4252 7.97481 31.972 11.7292 33.2237C12.5625 33.3695 12.875 32.8695 12.875 32.432C12.875 32.0362 12.8542 30.7237 12.8542 29.3278C8.66666 30.0987 7.58333 28.3071 7.24999 27.3696C6.88012 26.4578 6.29379 25.6498 5.54166 25.0153C4.95833 24.7028 4.12499 23.932 5.52081 23.9112C6.05379 23.969 6.56497 24.1545 7.01105 24.4519C7.45712 24.7492 7.82494 25.1498 8.08333 25.6195C8.31128 26.029 8.61779 26.3895 8.98531 26.6803C9.35283 26.9712 9.77412 27.1866 10.225 27.3143C10.676 27.4421 11.1477 27.4796 11.6131 27.4247C12.0786 27.3698 12.5286 27.2236 12.9375 26.9945C13.0096 26.1472 13.3872 25.355 14 24.7654C10.2917 24.3487 6.41666 22.9112 6.41666 16.5362C6.39324 14.8798 7.00447 13.2772 8.12499 12.0571C7.61546 10.6174 7.67508 9.03753 8.29166 7.64039C8.29166 7.64039 9.68744 7.20287 12.875 9.34872C15.6021 8.59868 18.4812 8.59868 21.2083 9.34872C24.3958 7.18206 25.7917 7.64039 25.7917 7.64039C26.4083 9.03751 26.4679 10.6174 25.9583 12.0571C27.0822 13.2751 27.694 14.8791 27.6667 16.5362C27.6667 22.932 23.7708 24.3487 20.0625 24.7654C20.4602 25.1685 20.7666 25.6525 20.9607 26.1846C21.1548 26.7166 21.2322 27.2842 21.1875 27.8487C21.1875 30.0779 21.1666 31.8695 21.1666 32.4321C21.1666 32.8696 21.4791 33.3904 22.3125 33.2237C26.0603 31.9618 29.2376 29.4091 31.2773 26.0213C33.3171 22.6334 34.0865 18.6309 33.4481 14.7282C32.8098 10.8256 30.8053 7.27679 27.7924 4.71536C24.7796 2.15392 20.9545 0.746565 17 0.744507V0.744507Z" fill="white"/>
</svg>
