<svg width="39" height="38" viewBox="0 0 39 38" fill="none" xmlns="http://www.w3.org/2000/svg">
<path d="M19.4999 0C14.8696 0.000191816 10.3905 1.64633 6.86394 4.64387C3.33739 7.6414 0.993573 11.7947 0.251861 16.3607C-0.489851 20.9267 0.418945 25.6073 2.81564 29.5652C5.21233 33.523 8.94052 36.4997 13.3331 37.9627C14.3081 38.1332 14.6737 37.5488 14.6737 37.0374C14.6737 36.5747 14.6493 35.0406 14.6493 33.4091C9.74998 34.3101 8.48249 32.216 8.0925 31.1202C7.65975 30.0545 6.97374 29.1101 6.09376 28.3686C5.41126 28.0033 4.43627 27.1023 6.06937 27.078C6.69295 27.1456 7.29103 27.3624 7.81293 27.71C8.33483 28.0575 8.76517 28.5257 9.06749 29.0747C9.33419 29.5533 9.69281 29.9747 10.1228 30.3146C10.5528 30.6546 11.0457 30.9064 11.5733 31.0557C12.1009 31.205 12.6528 31.2488 13.1973 31.1847C13.7419 31.1205 14.2684 30.9497 14.7468 30.6819C14.8312 29.6915 15.273 28.7656 15.9899 28.0764C11.6512 27.5894 7.1175 25.9091 7.1175 18.4579C7.0901 16.5218 7.80523 14.6486 9.11624 13.2225C8.52009 11.5398 8.58985 9.69316 9.31124 8.06014C9.31124 8.06014 10.9443 7.54875 14.6737 10.0569C17.8644 9.18022 21.2329 9.18022 24.4236 10.0569C28.1529 7.52442 29.7861 8.06014 29.7861 8.06014C30.5076 9.69314 30.5773 11.5398 29.9811 13.2225C31.296 14.6462 32.0118 16.521 31.9798 18.4579C31.9798 25.9335 27.4217 27.5894 23.083 28.0764C23.5484 28.5476 23.9068 29.1133 24.1339 29.7352C24.361 30.357 24.4515 31.0204 24.3993 31.6803C24.3993 34.2859 24.3749 36.38 24.3749 37.0375C24.3749 37.5488 24.7405 38.1576 25.7155 37.9628C30.1003 36.4878 33.8178 33.5041 36.2043 29.5443C38.5908 25.5845 39.4909 20.9062 38.7441 16.3446C37.9972 11.7831 35.652 7.63515 32.127 4.64126C28.602 1.64737 24.1267 0.00240567 19.4999 0V0Z" fill="black"/>
</svg>
