<svg width="610" height="1134" viewBox="0 0 610 1134" fill="none" xmlns="http://www.w3.org/2000/svg">
<g filter="url(#filter0_dii)">
<path d="M0 50C0 22.3858 22.3858 0 50 0H420C447.614 0 470 22.3858 470 50V964C470 991.614 447.614 1014 420 1014H50C22.3858 1014 0 991.614 0 964V50Z" fill="#F1F3F6"/>
<g filter="url(#filter1_ii)">
<rect x="7.25" y="13.25" width="455.5" height="987.5" rx="49.75" stroke="url(#paint0_linear)" stroke-width="0.5"/>
</g>
<rect x="96" width="7" height="13" fill="#E3E5E8"/>
<rect x="366" width="7" height="13" fill="#E3E5E8"/>
<rect x="96" y="1001" width="7" height="13" fill="#E3E5E8"/>
<rect x="366" y="1001" width="7" height="13" fill="#E3E5E8"/>
<rect x="226.632" y="25" width="3.63158" height="3.63158" rx="1.81579" fill="#E1E1E1"/>
<rect x="233.263" y="25" width="3.63158" height="3.63158" rx="1.81579" fill="#E1E1E1"/>
<rect x="239.895" y="25" width="3.63158" height="3.63158" rx="1.81579" fill="#E1E1E1"/>
<rect x="246.526" y="25" width="3.63158" height="3.63158" rx="1.81579" fill="#E1E1E1"/>
<rect x="220" y="25" width="3.63158" height="3.63158" rx="1.81579" fill="#E1E1E1"/>
<path d="M133.44 204.168C132.272 204.168 131.216 203.968 130.272 203.568C129.344 203.168 128.608 202.592 128.064 201.84C127.52 201.088 127.24 200.2 127.224 199.176H130.824C130.872 199.864 131.112 200.408 131.544 200.808C131.992 201.208 132.6 201.408 133.368 201.408C134.152 201.408 134.768 201.224 135.216 200.856C135.664 200.472 135.888 199.976 135.888 199.368C135.888 198.872 135.736 198.464 135.432 198.144C135.128 197.824 134.744 197.576 134.28 197.4C133.832 197.208 133.208 197 132.408 196.776C131.32 196.456 130.432 196.144 129.744 195.84C129.072 195.52 128.488 195.048 127.992 194.424C127.512 193.784 127.272 192.936 127.272 191.88C127.272 190.888 127.52 190.024 128.016 189.288C128.512 188.552 129.208 187.992 130.104 187.608C131 187.208 132.024 187.008 133.176 187.008C134.904 187.008 136.304 187.432 137.376 188.28C138.464 189.112 139.064 190.28 139.176 191.784H135.48C135.448 191.208 135.2 190.736 134.736 190.368C134.288 189.984 133.688 189.792 132.936 189.792C132.28 189.792 131.752 189.96 131.352 190.296C130.968 190.632 130.776 191.12 130.776 191.76C130.776 192.208 130.92 192.584 131.208 192.888C131.512 193.176 131.88 193.416 132.312 193.608C132.76 193.784 133.384 193.992 134.184 194.232C135.272 194.552 136.16 194.872 136.848 195.192C137.536 195.512 138.128 195.992 138.624 196.632C139.12 197.272 139.368 198.112 139.368 199.152C139.368 200.048 139.136 200.88 138.672 201.648C138.208 202.416 137.528 203.032 136.632 203.496C135.736 203.944 134.672 204.168 133.44 204.168ZM141.417 197.352C141.417 195.976 141.697 194.776 142.257 193.752C142.817 192.712 143.593 191.912 144.585 191.352C145.577 190.776 146.713 190.488 147.993 190.488C149.641 190.488 151.001 190.904 152.073 191.736C153.161 192.552 153.889 193.704 154.257 195.192H150.633C150.441 194.616 150.113 194.168 149.649 193.848C149.201 193.512 148.641 193.344 147.969 193.344C147.009 193.344 146.249 193.696 145.689 194.4C145.129 195.088 144.849 196.072 144.849 197.352C144.849 198.616 145.129 199.6 145.689 200.304C146.249 200.992 147.009 201.336 147.969 201.336C149.329 201.336 150.217 200.728 150.633 199.512H154.257C153.889 200.952 153.161 202.096 152.073 202.944C150.985 203.792 149.625 204.216 147.993 204.216C146.713 204.216 145.577 203.936 144.585 203.376C143.593 202.8 142.817 202 142.257 200.976C141.697 199.936 141.417 198.728 141.417 197.352ZM155.854 197.304C155.854 195.96 156.118 194.768 156.646 193.728C157.191 192.688 157.919 191.888 158.831 191.328C159.759 190.768 160.791 190.488 161.927 190.488C162.919 190.488 163.783 190.688 164.519 191.088C165.271 191.488 165.871 191.992 166.319 192.6V190.704H169.703V204H166.319V202.056C165.887 202.68 165.287 203.2 164.519 203.616C163.767 204.016 162.895 204.216 161.903 204.216C160.783 204.216 159.759 203.928 158.831 203.352C157.919 202.776 157.191 201.968 156.646 200.928C156.118 199.872 155.854 198.664 155.854 197.304ZM166.319 197.352C166.319 196.536 166.159 195.84 165.839 195.264C165.519 194.672 165.087 194.224 164.543 193.92C163.999 193.6 163.415 193.44 162.791 193.44C162.167 193.44 161.591 193.592 161.062 193.896C160.535 194.2 160.103 194.648 159.767 195.24C159.447 195.816 159.287 196.504 159.287 197.304C159.287 198.104 159.447 198.808 159.767 199.416C160.103 200.008 160.535 200.464 161.062 200.784C161.607 201.104 162.183 201.264 162.791 201.264C163.415 201.264 163.999 201.112 164.543 200.808C165.087 200.488 165.519 200.04 165.839 199.464C166.159 198.872 166.319 198.168 166.319 197.352ZM180.352 190.512C181.936 190.512 183.216 191.016 184.192 192.024C185.168 193.016 185.656 194.408 185.656 196.2V204H182.296V196.656C182.296 195.6 182.032 194.792 181.504 194.232C180.976 193.656 180.256 193.368 179.344 193.368C178.416 193.368 177.68 193.656 177.136 194.232C176.608 194.792 176.344 195.6 176.344 196.656V204H172.984V190.704H176.344V192.36C176.792 191.784 177.36 191.336 178.048 191.016C178.752 190.68 179.52 190.512 180.352 190.512ZM198.482 193.464V199.896C198.482 200.344 198.586 200.672 198.794 200.88C199.018 201.072 199.386 201.168 199.898 201.168H201.458V204H199.346C196.514 204 195.098 202.624 195.098 199.872V193.464H193.514V190.704H195.098V187.416H198.482V190.704H201.458V193.464H198.482ZM211.363 190.512C212.371 190.512 213.267 190.736 214.051 191.184C214.835 191.616 215.443 192.264 215.875 193.128C216.323 193.976 216.547 195 216.547 196.2V204H213.187V196.656C213.187 195.6 212.923 194.792 212.395 194.232C211.867 193.656 211.147 193.368 210.235 193.368C209.307 193.368 208.571 193.656 208.027 194.232C207.499 194.792 207.235 195.6 207.235 196.656V204H203.875V186.24H207.235V192.36C207.667 191.784 208.243 191.336 208.963 191.016C209.683 190.68 210.483 190.512 211.363 190.512ZM232.102 197.064C232.102 197.544 232.07 197.976 232.006 198.36H222.286C222.366 199.32 222.702 200.072 223.294 200.616C223.886 201.16 224.614 201.432 225.478 201.432C226.726 201.432 227.614 200.896 228.142 199.824H231.766C231.382 201.104 230.646 202.16 229.558 202.992C228.47 203.808 227.134 204.216 225.55 204.216C224.27 204.216 223.118 203.936 222.094 203.376C221.086 202.8 220.294 201.992 219.718 200.952C219.158 199.912 218.878 198.712 218.878 197.352C218.878 195.976 219.158 194.768 219.718 193.728C220.278 192.688 221.062 191.888 222.07 191.328C223.078 190.768 224.238 190.488 225.55 190.488C226.814 190.488 227.942 190.76 228.934 191.304C229.942 191.848 230.718 192.624 231.262 193.632C231.822 194.624 232.102 195.768 232.102 197.064ZM228.622 196.104C228.606 195.24 228.294 194.552 227.686 194.04C227.078 193.512 226.334 193.248 225.454 193.248C224.622 193.248 223.918 193.504 223.342 194.016C222.782 194.512 222.438 195.208 222.31 196.104H228.622ZM252.753 206.952L250.209 203.904C249.505 204.08 248.785 204.168 248.049 204.168C246.481 204.168 245.041 203.8 243.729 203.064C242.417 202.328 241.377 201.312 240.609 200.016C239.841 198.704 239.457 197.224 239.457 195.576C239.457 193.944 239.841 192.48 240.609 191.184C241.377 189.872 242.417 188.848 243.729 188.112C245.041 187.376 246.481 187.008 248.049 187.008C249.633 187.008 251.073 187.376 252.369 188.112C253.681 188.848 254.713 189.872 255.465 191.184C256.233 192.48 256.617 193.944 256.617 195.576C256.617 197.064 256.297 198.424 255.657 199.656C255.033 200.872 254.177 201.864 253.089 202.632L256.929 206.952H252.753ZM242.913 195.576C242.913 196.696 243.129 197.68 243.561 198.528C243.993 199.376 244.593 200.032 245.361 200.496C246.145 200.944 247.041 201.168 248.049 201.168C249.057 201.168 249.945 200.944 250.713 200.496C251.481 200.032 252.081 199.376 252.513 198.528C252.945 197.68 253.161 196.696 253.161 195.576C253.161 194.456 252.945 193.48 252.513 192.648C252.081 191.8 251.481 191.152 250.713 190.704C249.945 190.256 249.057 190.032 248.049 190.032C247.041 190.032 246.145 190.256 245.361 190.704C244.593 191.152 243.993 191.8 243.561 192.648C243.129 193.48 242.913 194.456 242.913 195.576ZM267.804 204L264.108 197.472H262.524V204H259.164V187.248H265.452C266.748 187.248 267.852 187.48 268.764 187.944C269.676 188.392 270.356 189.008 270.804 189.792C271.268 190.56 271.5 191.424 271.5 192.384C271.5 193.488 271.18 194.488 270.54 195.384C269.9 196.264 268.948 196.872 267.684 197.208L271.692 204H267.804ZM262.524 194.952H265.332C266.244 194.952 266.924 194.736 267.372 194.304C267.82 193.856 268.044 193.24 268.044 192.456C268.044 191.688 267.82 191.096 267.372 190.68C266.924 190.248 266.244 190.032 265.332 190.032H262.524V194.952ZM279.442 195.6C279.442 193.952 279.81 192.48 280.546 191.184C281.298 189.872 282.314 188.856 283.594 188.136C284.89 187.4 286.338 187.032 287.938 187.032C289.81 187.032 291.45 187.512 292.858 188.472C294.266 189.432 295.25 190.76 295.81 192.456H291.946C291.562 191.656 291.018 191.056 290.314 190.656C289.626 190.256 288.826 190.056 287.914 190.056C286.938 190.056 286.066 190.288 285.298 190.752C284.546 191.2 283.954 191.84 283.522 192.672C283.106 193.504 282.898 194.48 282.898 195.6C282.898 196.704 283.106 197.68 283.522 198.528C283.954 199.36 284.546 200.008 285.298 200.472C286.066 200.92 286.938 201.144 287.914 201.144C288.826 201.144 289.626 200.944 290.314 200.544C291.018 200.128 291.562 199.52 291.946 198.72H295.81C295.25 200.432 294.266 201.768 292.858 202.728C291.466 203.672 289.826 204.144 287.938 204.144C286.338 204.144 284.89 203.784 283.594 203.064C282.314 202.328 281.298 201.312 280.546 200.016C279.81 198.72 279.442 197.248 279.442 195.6ZM304.583 204.216C303.303 204.216 302.151 203.936 301.127 203.376C300.103 202.8 299.295 201.992 298.703 200.952C298.127 199.912 297.839 198.712 297.839 197.352C297.839 195.992 298.135 194.792 298.727 193.752C299.335 192.712 300.159 191.912 301.199 191.352C302.239 190.776 303.399 190.488 304.679 190.488C305.959 190.488 307.119 190.776 308.159 191.352C309.199 191.912 310.015 192.712 310.607 193.752C311.215 194.792 311.519 195.992 311.519 197.352C311.519 198.712 311.207 199.912 310.583 200.952C309.975 201.992 309.143 202.8 308.087 203.376C307.047 203.936 305.879 204.216 304.583 204.216ZM304.583 201.288C305.191 201.288 305.759 201.144 306.287 200.856C306.831 200.552 307.263 200.104 307.583 199.512C307.903 198.92 308.063 198.2 308.063 197.352C308.063 196.088 307.727 195.12 307.055 194.448C306.399 193.76 305.591 193.416 304.631 193.416C303.671 193.416 302.863 193.76 302.207 194.448C301.567 195.12 301.247 196.088 301.247 197.352C301.247 198.616 301.559 199.592 302.183 200.28C302.823 200.952 303.623 201.288 304.583 201.288ZM313.12 197.304C313.12 195.96 313.384 194.768 313.912 193.728C314.456 192.688 315.192 191.888 316.12 191.328C317.048 190.768 318.08 190.488 319.216 190.488C320.08 190.488 320.904 190.68 321.688 191.064C322.472 191.432 323.096 191.928 323.56 192.552V186.24H326.968V204H323.56V202.032C323.144 202.688 322.56 203.216 321.808 203.616C321.056 204.016 320.184 204.216 319.192 204.216C318.072 204.216 317.048 203.928 316.12 203.352C315.192 202.776 314.456 201.968 313.912 200.928C313.384 199.872 313.12 198.664 313.12 197.304ZM323.584 197.352C323.584 196.536 323.424 195.84 323.104 195.264C322.784 194.672 322.352 194.224 321.808 193.92C321.264 193.6 320.68 193.44 320.056 193.44C319.432 193.44 318.856 193.592 318.328 193.896C317.8 194.2 317.368 194.648 317.032 195.24C316.712 195.816 316.552 196.504 316.552 197.304C316.552 198.104 316.712 198.808 317.032 199.416C317.368 200.008 317.8 200.464 318.328 200.784C318.872 201.104 319.448 201.264 320.056 201.264C320.68 201.264 321.264 201.112 321.808 200.808C322.352 200.488 322.784 200.04 323.104 199.464C323.424 198.872 323.584 198.168 323.584 197.352ZM342.61 197.064C342.61 197.544 342.578 197.976 342.514 198.36H332.794C332.874 199.32 333.21 200.072 333.802 200.616C334.394 201.16 335.122 201.432 335.986 201.432C337.234 201.432 338.122 200.896 338.65 199.824H342.274C341.89 201.104 341.154 202.16 340.066 202.992C338.978 203.808 337.642 204.216 336.058 204.216C334.778 204.216 333.626 203.936 332.602 203.376C331.594 202.8 330.802 201.992 330.226 200.952C329.666 199.912 329.386 198.712 329.386 197.352C329.386 195.976 329.666 194.768 330.226 193.728C330.786 192.688 331.57 191.888 332.578 191.328C333.586 190.768 334.746 190.488 336.058 190.488C337.322 190.488 338.45 190.76 339.442 191.304C340.45 191.848 341.226 192.624 341.77 193.632C342.33 194.624 342.61 195.768 342.61 197.064ZM339.13 196.104C339.114 195.24 338.802 194.552 338.194 194.04C337.586 193.512 336.842 193.248 335.962 193.248C335.13 193.248 334.426 193.504 333.85 194.016C333.29 194.512 332.946 195.208 332.818 196.104H339.13Z" fill="black"/>
</g>
<defs>
<filter id="filter0_dii" x="-30" y="-2" width="640" height="1136" filterUnits="userSpaceOnUse" color-interpolation-filters="sRGB">
<feFlood flood-opacity="0" result="BackgroundImageFix"/>
<feColorMatrix in="SourceAlpha" type="matrix" values="0 0 0 0 0 0 0 0 0 0 0 0 0 0 0 0 0 0 127 0"/>
<feOffset dx="80" dy="60"/>
<feGaussianBlur stdDeviation="30"/>
<feColorMatrix type="matrix" values="0 0 0 0 0.419608 0 0 0 0 0.498039 0 0 0 0 0.6 0 0 0 0.2 0"/>
<feBlend mode="normal" in2="BackgroundImageFix" result="effect1_dropShadow"/>
<feBlend mode="normal" in="SourceGraphic" in2="effect1_dropShadow" result="shape"/>
<feColorMatrix in="SourceAlpha" type="matrix" values="0 0 0 0 0 0 0 0 0 0 0 0 0 0 0 0 0 0 127 0" result="hardAlpha"/>
<feOffset dx="30" dy="2"/>
<feGaussianBlur stdDeviation="15"/>
<feComposite in2="hardAlpha" operator="arithmetic" k2="-1" k3="1"/>
<feColorMatrix type="matrix" values="0 0 0 0 1 0 0 0 0 1 0 0 0 0 1 0 0 0 0.8 0"/>
<feBlend mode="normal" in2="shape" result="effect2_innerShadow"/>
<feColorMatrix in="SourceAlpha" type="matrix" values="0 0 0 0 0 0 0 0 0 0 0 0 0 0 0 0 0 0 127 0" result="hardAlpha"/>
<feOffset dx="-30" dy="-2"/>
<feGaussianBlur stdDeviation="15"/>
<feComposite in2="hardAlpha" operator="arithmetic" k2="-1" k3="1"/>
<feColorMatrix type="matrix" values="0 0 0 0 0.25098 0 0 0 0 0.321569 0 0 0 0 0.501961 0 0 0 0.1 0"/>
<feBlend mode="normal" in2="effect2_innerShadow" result="effect3_innerShadow"/>
</filter>
<filter id="filter1_ii" x="-23" y="11" width="516" height="992" filterUnits="userSpaceOnUse" color-interpolation-filters="sRGB">
<feFlood flood-opacity="0" result="BackgroundImageFix"/>
<feBlend mode="normal" in="SourceGraphic" in2="BackgroundImageFix" result="shape"/>
<feColorMatrix in="SourceAlpha" type="matrix" values="0 0 0 0 0 0 0 0 0 0 0 0 0 0 0 0 0 0 127 0" result="hardAlpha"/>
<feOffset dx="30" dy="2"/>
<feGaussianBlur stdDeviation="15"/>
<feComposite in2="hardAlpha" operator="arithmetic" k2="-1" k3="1"/>
<feColorMatrix type="matrix" values="0 0 0 0 1 0 0 0 0 1 0 0 0 0 1 0 0 0 0.8 0"/>
<feBlend mode="normal" in2="shape" result="effect1_innerShadow"/>
<feColorMatrix in="SourceAlpha" type="matrix" values="0 0 0 0 0 0 0 0 0 0 0 0 0 0 0 0 0 0 127 0" result="hardAlpha"/>
<feOffset dx="-30" dy="-2"/>
<feGaussianBlur stdDeviation="15"/>
<feComposite in2="hardAlpha" operator="arithmetic" k2="-1" k3="1"/>
<feColorMatrix type="matrix" values="0 0 0 0 0.25098 0 0 0 0 0.321569 0 0 0 0 0.501961 0 0 0 0.1 0"/>
<feBlend mode="normal" in2="effect1_innerShadow" result="effect2_innerShadow"/>
</filter>
<linearGradient id="paint0_linear" x1="235" y1="13" x2="235" y2="1001" gradientUnits="userSpaceOnUse">
<stop stop-color="#D3D7DB"/>
<stop offset="1" stop-color="#CED2D6"/>
</linearGradient>
</defs>
</svg>
