<svg width="16" height="16" viewBox="0 0 16 16" fill="none" xmlns="http://www.w3.org/2000/svg">
<path d="M16 0H0V16H16V0Z" fill="black"/>
<path d="M4.07806 2.90574C4.09271 2.90898 4.13858 2.88938 4.21046 2.85092C4.28395 2.8146 4.38532 2.76191 4.5079 2.69497C4.75789 2.56847 5.1043 2.40024 5.51989 2.25684C5.93472 2.11306 6.41672 1.99102 6.91706 1.93725C6.97946 1.93065 7.04207 1.92402 7.10479 1.91739C7.16762 1.91243 7.23075 1.90951 7.29361 1.90553C7.41919 1.8955 7.54552 1.8976 7.67037 1.89513C7.73282 1.89387 7.79527 1.8983 7.85723 1.89963C7.91921 1.90254 7.98085 1.90186 8.04206 1.90775C8.16444 1.91834 8.28532 1.92432 8.40325 1.94174C7.5895 1.95223 6.87853 2.1371 6.3087 2.38191C6.02316 2.50538 5.77332 2.64801 5.55449 2.78966C5.44719 2.86499 5.34399 2.9331 5.25298 3.00926C5.20728 3.0462 5.16269 3.08224 5.11921 3.11738C5.07801 3.15504 5.03787 3.19174 4.99882 3.22745C4.69056 3.51556 4.50408 3.78156 4.40553 3.97799C4.31097 4.17948 4.29989 4.30874 4.36442 4.36401C4.77666 3.85012 5.31068 3.39651 5.94181 3.06429C6.57144 2.73121 7.2962 2.52018 8.05279 2.47286C8.8087 2.42357 9.59494 2.53511 10.3346 2.81385C10.7044 2.95283 11.0623 3.13297 11.3989 3.35092C11.7355 3.56887 12.0501 3.825 12.3363 4.11166C12.9091 4.68473 13.3608 5.38733 13.6473 6.15234C13.9353 6.91696 14.0592 7.74132 14.0163 8.54974C13.9749 9.3587 13.764 10.1502 13.4175 10.8592C13.0722 11.57 12.5881 12.1927 12.0309 12.6983C11.7519 12.9516 11.4534 13.1761 11.1428 13.3696C10.832 13.5631 10.5078 13.7226 10.1801 13.8531C9.85218 13.9834 9.51989 14.0831 9.18961 14.1552C8.85884 14.2251 8.53036 14.2659 8.20942 14.2835C7.88833 14.3026 7.57468 14.2911 7.27277 14.262C7.23502 14.2581 7.19742 14.2542 7.15998 14.2504C7.12251 14.2467 7.0852 14.2428 7.04836 14.2367C6.97449 14.2255 6.90123 14.2143 6.82862 14.2033C6.756 14.192 6.68497 14.1755 6.61404 14.1619C6.57862 14.1547 6.54337 14.1475 6.50828 14.1404C6.4733 14.1328 6.43891 14.1233 6.40444 14.1149C6.33561 14.0974 6.26741 14.0801 6.19988 14.0629C6.13319 14.0426 6.06716 14.0224 6.00177 14.0025C5.96909 13.9924 5.93658 13.9823 5.90423 13.9724C5.87235 13.9609 5.84064 13.9495 5.80911 13.9382C5.74603 13.9154 5.6836 13.8928 5.62185 13.8705C5.37835 13.7721 5.14787 13.6697 4.93755 13.5543C4.51449 13.3278 4.16063 13.0757 3.8712 12.833C3.79881 12.7722 3.72842 12.7142 3.66545 12.6532C3.60167 12.5931 3.53891 12.5369 3.48179 12.4799C3.36974 12.3639 3.26533 12.26 3.18037 12.1583C3.13694 12.1083 3.09596 12.0612 3.05749 12.0169C3.02117 11.9708 2.98723 11.9278 2.9557 11.8878C2.92427 11.8477 2.89526 11.8106 2.86873 11.7768C2.84288 11.7424 2.82099 11.7101 2.80062 11.6817C2.72018 11.5674 2.67755 11.5069 2.67603 11.5047C2.49441 11.23 2.33376 10.9433 2.19495 10.6473C2.05638 10.3511 1.94569 10.0438 1.85453 9.73202C1.76249 9.42024 1.70036 9.10101 1.65891 8.78015C1.636 8.61981 1.62608 8.45827 1.61448 8.297L1.60756 8.05458C1.60584 8.01419 1.60615 7.97379 1.60728 7.93338L1.60961 7.81217C1.62381 7.16561 1.74133 6.52226 1.94909 5.90659C2.05567 5.59958 2.18449 5.29968 2.33461 5.00935C2.4874 4.72034 2.66314 4.44278 2.85746 4.17729C2.88066 4.14708 2.92672 4.08711 2.98306 4.01376C2.99714 3.99539 3.01184 3.97619 3.027 3.9564C3.04297 3.93731 3.05943 3.91765 3.07613 3.89768C3.10959 3.85772 3.14408 3.81651 3.17799 3.77601C3.24411 3.6934 3.31523 3.62052 3.3658 3.56162C3.41706 3.50337 3.4511 3.46223 3.45327 3.45294L3.45304 3.45307C2.87166 4.03522 2.40005 4.73118 2.07925 5.49116C1.75737 6.25069 1.58508 7.07195 1.57222 7.8955C1.55864 8.71906 1.70436 9.54526 2.00149 10.3147C2.29754 11.0845 2.74642 11.7955 3.31006 12.3953C3.87191 12.9956 4.55129 13.4904 5.30065 13.8363C6.04944 14.1833 6.86533 14.3817 7.68824 14.4211C8.51119 14.4612 9.34175 14.3422 10.1206 14.0703C10.8997 13.7993 11.6254 13.3739 12.2428 12.8287C12.8599 12.2851 13.3756 11.623 13.7457 10.8853C14.1167 10.1484 14.3419 9.33951 14.4077 8.51843C14.4742 7.69735 14.3818 6.86384 14.1356 6.07689C13.8903 5.28973 13.4896 4.55049 12.9653 3.91462C12.4427 3.27845 11.7958 2.74492 11.0709 2.35033C10.3463 1.9557 9.54488 1.70434 8.72622 1.61218C7.90759 1.51927 7.07157 1.58476 6.27714 1.80536C5.48256 2.02501 4.73058 2.4013 4.07838 2.9054L4.07806 2.90574Z" fill="white"/>
<path d="M6.06983 10.0911L4.15801 7.70809V10.0911H3.43518V6.37255H3.99563L5.93364 8.81319V6.37778H6.65647V10.0911H6.06983ZM9.33826 8.07471L8.71495 6.38302H9.38016L9.79919 7.61382L10.2182 6.38302H10.8887L10.2549 8.07471L10.7263 9.26361L11.7791 6.37255H12.5648L11.051 10.0911H10.4434L9.79919 8.53037L9.15493 10.0911H8.54734L7.04407 6.37255H7.81928L8.87732 9.26361L9.33826 8.07471Z" fill="white"/>
</svg>
